<?xml version="1.0" encoding="iso-8859-1"?>
<!-- Uploaded to: SVG Repo, www.svgrepo.com, Generator: SVG Repo Mixer Tools -->
<svg fill="#000000" height="800px" width="800px" version="1.1" id="Layer_1" xmlns="http://www.w3.org/2000/svg" xmlns:xlink="http://www.w3.org/1999/xlink" 
	 viewBox="0 0 492.308 492.308" xml:space="preserve">
<g>
	<g>
		<path d="M0,28.226v362.529h180.942l65.212,73.327l65.212-73.327h180.942V28.226H0z M472.615,371.063H302.529l-56.375,63.385
			l-56.375-63.385H19.692V47.918h452.923V371.063z"/>
	</g>
</g>
<g>
	<g>
		<path d="M376.01,151.101c-27.486,0-49.846,22.365-49.846,49.846s22.361,49.846,49.846,49.846s49.846-22.365,49.846-49.846
			S403.495,151.101,376.01,151.101z M376.01,231.101c-16.625,0-30.154-13.529-30.154-30.154s13.529-30.154,30.154-30.154
			s30.154,13.529,30.154,30.154S392.635,231.101,376.01,231.101z"/>
	</g>
</g>
<g>
	<g>
		<path d="M246.154,151.101c-27.486,0-49.846,22.365-49.846,49.846s22.361,49.846,49.846,49.846S296,228.428,296,200.947
			S273.639,151.101,246.154,151.101z M246.154,231.101c-16.625,0-30.154-13.529-30.154-30.154s13.529-30.154,30.154-30.154
			s30.154,13.529,30.154,30.154S262.779,231.101,246.154,231.101z"/>
	</g>
</g>
<g>
	<g>
		<path d="M116.303,151.101c-27.486,0-49.846,22.365-49.846,49.846s22.361,49.846,49.846,49.846s49.846-22.365,49.846-49.846
			S143.788,151.101,116.303,151.101z M116.303,231.101c-16.625,0-30.154-13.529-30.154-30.154s13.529-30.154,30.154-30.154
			s30.154,13.529,30.154,30.154S132.928,231.101,116.303,231.101z"/>
	</g>
</g>
</svg>